<?xml version="1.0" encoding="UTF-8"?>
<svg width="102px" height="32px" viewBox="0 0 102 32" version="1.1" xmlns="http://www.w3.org/2000/svg" xmlns:xlink="http://www.w3.org/1999/xlink">
    <!-- Generator: Sketch 64 (93537) - https://sketch.com -->
    <title>binar</title>
    <desc>Created with Sketch.</desc>
    <g id="Desktop-1440" stroke="none" stroke-width="1" fill="none" fill-rule="evenodd">
        <g id="Home" transform="translate(-41.000000, -41.000000)" fill="#E6E3E1" fill-rule="nonzero">
            <g id="Hero-IMG">
                <g id="Menu" transform="translate(41.000000, 41.000000)">
                    <g id="Logo">
                        <path d="M11.1767152,32 C16.5031185,32 21,27.8825175 21,20.9902098 C21,14.0979021 16.5031185,9.98041958 11.1767152,9.98041958 C7.85862786,9.98041958 5.63201663,11.4573427 4.36590437,13.6951049 L4.27858628,13.6951049 L4.27858628,0 L0,0 L0,31.3286713 L4.27858628,31.3286713 L4.27858628,28.2853147 L4.36590437,28.2853147 C5.63201663,30.5230769 7.85862786,32 11.1767152,32 Z M10.5,27 C6.56338028,27 4,24.3133333 4,20.5 C4,16.6866667 6.56338028,14 10.5,14 C14.4366197,14 17,16.6866667 17,20.5 C17,24.3133333 14.4366197,27 10.5,27 Z M30,31 L30,10 L26,10 L26,31 L30,31 Z M39.3811765,31 L39.3811765,21.2704403 C39.3811765,16.2075472 41.6611765,14.3144654 44.88,14.3144654 C47.8305882,14.3144654 49.6188235,15.7672956 49.6188235,19.245283 L49.6188235,31 L54,31 L54,18.4968553 C54,12.3333333 50.6470588,10 46.2211765,10 C43.0470588,10 40.8117647,11.408805 39.4705882,13.7421384 L39.3811765,13.7421384 L39.3811765,10.6603774 L35,10.6603774 L35,31 L39.3811765,31 Z M67.8232848,32 C71.1413721,32 73.3679834,30.5243902 74.6340956,28.2886179 L74.7214137,28.2886179 L74.7214137,31.3292683 L79,31.3292683 L79,10.6707317 L74.7214137,10.6707317 L74.7214137,13.7113821 L74.6340956,13.7113821 C73.3679834,11.4756098 71.1413721,10 67.8232848,10 C62.4968815,10 58,14.1138211 58,21 C58,27.8861789 62.4968815,32 67.8232848,32 Z M68.5,27 C64.5633803,27 62,24.3133333 62,20.5 C62,16.6866667 64.5633803,14 68.5,14 C72.4366197,14 75,16.6866667 75,20.5 C75,24.3133333 72.4366197,27 68.5,27 Z M88.5230769,31 L88.5230769,21.9558824 C88.5230769,17.1029412 90.8769231,15.0735294 95.3076923,15.0735294 L96,15.0735294 L96,10 L95.6769231,10 C92.0769231,10 89.6307692,12.0294118 88.6153846,15.0735294 L88.5230769,15.0735294 L88.5230769,10.6176471 L84,10.6176471 L84,31 L88.5230769,31 Z M102,26 L102,31 L97,31 L97,26 L102,26 Z M25,1 L25,6 L20,6 L20,1 L25,1 Z M35,1 L35,6 L30,6 L30,1 L35,1 Z" id="binar."></path>
                    </g>
                </g>
            </g>
        </g>
    </g>
</svg>